<svg fill="#fff" xmlns="http://www.w3.org/2000/svg" xmlns:xlink="http://www.w3.org/1999/xlink" width="500" zoomAndPan="magnify" viewBox="0 0 375 374.999991" height="500" preserveAspectRatio="xMidYMid meet" version="1.0"><defs><g/></defs><g fill="#ffffff" fill-opacity="1"><g transform="translate(94.63312, 216.585376)"><g><path d="M 44.984375 -51.6875 L 83.078125 -51.6875 L 83.078125 -4.109375 C 72.734375 -0.566406 61.363281 1.203125 48.96875 1.203125 C 35.363281 1.203125 24.847656 -2.738281 17.421875 -10.625 C 9.992188 -18.519531 6.28125 -29.769531 6.28125 -44.375 C 6.28125 -58.625 10.34375 -69.710938 18.46875 -77.640625 C 26.601562 -85.578125 38 -89.546875 52.65625 -89.546875 C 58.207031 -89.546875 63.445312 -89.019531 68.375 -87.96875 C 73.3125 -86.925781 77.609375 -85.597656 81.265625 -83.984375 L 73.71875 -65.265625 C 67.363281 -68.410156 60.378906 -69.984375 52.765625 -69.984375 C 45.804688 -69.984375 40.425781 -67.71875 36.625 -63.1875 C 32.820312 -58.65625 30.921875 -52.1875 30.921875 -43.78125 C 30.921875 -35.519531 32.640625 -29.226562 36.078125 -24.90625 C 39.515625 -20.582031 44.472656 -18.421875 50.953125 -18.421875 C 54.492188 -18.421875 57.753906 -18.757812 60.734375 -19.4375 L 60.734375 -33.265625 L 44.984375 -33.265625 Z M 44.984375 -51.6875 "/></g></g></g><g fill="#ffffff" fill-opacity="1"><g transform="translate(220.686002, 63.968416)"><g><path d="M -67.265625 26.8125 C -67.265625 21.332031 -65.875 16.46875 -63.09375 12.21875 C -60.320312 7.976562 -56.316406 4.679688 -51.078125 2.328125 C -45.847656 -0.0234375 -39.710938 -1.203125 -32.671875 -1.203125 C -26.785156 -1.203125 -21.847656 -0.789062 -17.859375 0.03125 C -13.878906 0.851562 -9.738281 2.289062 -5.4375 4.34375 L -5.4375 25.59375 C -9.976562 23.257812 -14.703125 21.4375 -19.609375 20.125 C -24.523438 18.820312 -29.035156 18.171875 -33.140625 18.171875 C -36.691406 18.171875 -39.289062 18.785156 -40.9375 20.015625 C -42.582031 21.242188 -43.40625 22.820312 -43.40625 24.75 C -43.40625 25.957031 -43.070312 27.015625 -42.40625 27.921875 C -41.75 28.828125 -40.6875 29.742188 -39.21875 30.671875 C -37.75 31.597656 -33.832031 33.488281 -27.46875 36.34375 C -21.71875 38.957031 -17.398438 41.492188 -14.515625 43.953125 C -11.640625 46.410156 -9.503906 49.226562 -8.109375 52.40625 C -6.722656 55.582031 -6.03125 59.347656 -6.03125 63.703125 C -6.03125 71.828125 -8.988281 78.164062 -14.90625 82.71875 C -20.832031 87.269531 -28.96875 89.546875 -39.3125 89.546875 C -48.445312 89.546875 -57.765625 87.429688 -67.265625 83.203125 L -59.953125 64.78125 C -51.703125 68.570312 -44.578125 70.46875 -38.578125 70.46875 C -35.484375 70.46875 -33.226562 69.921875 -31.8125 68.828125 C -30.40625 67.742188 -29.703125 66.394531 -29.703125 64.78125 C -29.703125 63.050781 -30.597656 61.5 -32.390625 60.125 C -34.179688 58.757812 -39.039062 56.269531 -46.96875 52.65625 C -54.582031 49.226562 -59.867188 45.550781 -62.828125 41.625 C -65.785156 37.707031 -67.265625 32.769531 -67.265625 26.8125 Z M -67.265625 26.8125 "/></g></g></g><g fill="#ffffff" fill-opacity="1"><g transform="translate(259.268326, 223.310699)"><g><path d="M -55.375 -38.4375 C -51.132812 -41.25 -46.648438 -42.664062 -41.921875 -42.6875 C -37.203125 -42.707031 -32.582031 -41.296875 -28.0625 -38.453125 C -23.539062 -35.609375 -19.472656 -31.445312 -15.859375 -25.96875 C -12.835938 -21.414062 -10.617188 -17.378906 -9.203125 -13.859375 C -7.796875 -10.335938 -6.785156 -6.378906 -6.171875 -1.984375 L -22.65625 8.9375 C -23.1875 4.207031 -24.207031 -0.394531 -25.71875 -4.875 C -27.226562 -9.363281 -29.039062 -13.203125 -31.15625 -16.390625 C -32.976562 -19.140625 -34.785156 -20.835938 -36.578125 -21.484375 C -38.378906 -22.140625 -40.03125 -21.972656 -41.53125 -20.984375 C -42.46875 -20.359375 -43.117188 -19.550781 -43.484375 -18.5625 C -43.847656 -17.582031 -44.007812 -16.28125 -43.96875 -14.65625 C -43.925781 -13.039062 -43.382812 -9.035156 -42.34375 -2.640625 C -41.414062 3.179688 -41.164062 7.835938 -41.59375 11.328125 C -42.019531 14.828125 -43.109375 17.929688 -44.859375 20.640625 C -46.617188 23.347656 -49.1875 25.820312 -52.5625 28.0625 C -58.863281 32.238281 -65.296875 33.203125 -71.859375 30.953125 C -78.429688 28.703125 -84.378906 23.554688 -89.703125 15.515625 C -94.398438 8.421875 -97.554688 0.101562 -99.171875 -9.4375 L -81.09375 -13.234375 C -79.789062 -4.890625 -77.597656 1.609375 -74.515625 6.265625 C -72.921875 8.671875 -71.335938 10.140625 -69.765625 10.671875 C -68.203125 11.210938 -66.796875 11.066406 -65.546875 10.234375 C -64.210938 9.347656 -63.472656 7.859375 -63.328125 5.765625 C -63.191406 3.679688 -63.753906 -1.375 -65.015625 -9.40625 C -66.265625 -17.070312 -66.128906 -23.0625 -64.609375 -27.375 C -63.085938 -31.6875 -60.007812 -35.375 -55.375 -38.4375 Z M -55.375 -38.4375 "/></g></g></g></svg>