<svg fill="#fff" xmlns="http://www.w3.org/2000/svg" xmlns:xlink="http://www.w3.org/1999/xlink" width="500" zoomAndPan="magnify" viewBox="0 0 375 374.999991" height="500" preserveAspectRatio="xMidYMid meet" version="1.0"><defs><g/></defs><g fill="#ffffff" fill-opacity="1"><g transform="translate(133.712324, 189.921396)"><g><path d="M 26.0625 -29.9375 L 48.125 -29.9375 L 48.125 -2.375 C 42.132812 -0.320312 35.546875 0.703125 28.359375 0.703125 C 20.484375 0.703125 14.394531 -1.582031 10.09375 -6.15625 C 5.789062 -10.726562 3.640625 -17.242188 3.640625 -25.703125 C 3.640625 -33.953125 5.992188 -40.375 10.703125 -44.96875 C 15.410156 -49.5625 22.007812 -51.859375 30.5 -51.859375 C 33.71875 -51.859375 36.753906 -51.554688 39.609375 -50.953125 C 42.460938 -50.347656 44.953125 -49.578125 47.078125 -48.640625 L 42.703125 -37.8125 C 39.015625 -39.625 34.96875 -40.53125 30.5625 -40.53125 C 26.53125 -40.53125 23.410156 -39.21875 21.203125 -36.59375 C 19.003906 -33.976562 17.90625 -30.234375 17.90625 -25.359375 C 17.90625 -20.578125 18.898438 -16.929688 20.890625 -14.421875 C 22.890625 -11.921875 25.765625 -10.671875 29.515625 -10.671875 C 31.566406 -10.671875 33.457031 -10.867188 35.1875 -11.265625 L 35.1875 -19.265625 L 26.0625 -19.265625 Z M 26.0625 -29.9375 "/></g></g></g><g fill="#ffffff" fill-opacity="1"><g transform="translate(206.721026, 101.527025)"><g><path d="M -38.953125 15.53125 C -38.953125 12.351562 -38.148438 9.535156 -36.546875 7.078125 C -34.941406 4.617188 -32.625 2.707031 -29.59375 1.34375 C -26.5625 -0.0195312 -23.003906 -0.703125 -18.921875 -0.703125 C -15.515625 -0.703125 -12.65625 -0.460938 -10.34375 0.015625 C -8.039062 0.492188 -5.640625 1.328125 -3.140625 2.515625 L -3.140625 14.828125 C -5.773438 13.472656 -8.515625 12.414062 -11.359375 11.65625 C -14.210938 10.90625 -16.828125 10.53125 -19.203125 10.53125 C -21.253906 10.53125 -22.753906 10.882812 -23.703125 11.59375 C -24.660156 12.300781 -25.140625 13.21875 -25.140625 14.34375 C -25.140625 15.039062 -24.945312 15.648438 -24.5625 16.171875 C -24.175781 16.703125 -23.554688 17.234375 -22.703125 17.765625 C -21.859375 18.304688 -19.59375 19.398438 -15.90625 21.046875 C -12.570312 22.566406 -10.070312 24.035156 -8.40625 25.453125 C -6.738281 26.878906 -5.503906 28.515625 -4.703125 30.359375 C -3.898438 32.203125 -3.5 34.378906 -3.5 36.890625 C -3.5 41.609375 -5.210938 45.28125 -8.640625 47.90625 C -12.066406 50.539062 -16.773438 51.859375 -22.765625 51.859375 C -28.054688 51.859375 -33.453125 50.632812 -38.953125 48.1875 L -34.734375 37.53125 C -29.953125 39.71875 -25.820312 40.8125 -22.34375 40.8125 C -20.550781 40.8125 -19.242188 40.492188 -18.421875 39.859375 C -17.609375 39.234375 -17.203125 38.457031 -17.203125 37.53125 C -17.203125 36.519531 -17.71875 35.617188 -18.75 34.828125 C -19.789062 34.035156 -22.609375 32.59375 -27.203125 30.5 C -31.609375 28.519531 -34.664062 26.390625 -36.375 24.109375 C -38.09375 21.835938 -38.953125 18.976562 -38.953125 15.53125 Z M -38.953125 15.53125 "/></g></g></g><g fill="#ffffff" fill-opacity="1"><g transform="translate(229.067578, 193.816652)"><g><path d="M -32.078125 -22.25 C -29.617188 -23.882812 -27.019531 -24.707031 -24.28125 -24.71875 C -21.539062 -24.726562 -18.863281 -23.910156 -16.25 -22.265625 C -13.632812 -20.617188 -11.273438 -18.210938 -9.171875 -15.046875 C -7.421875 -12.398438 -6.140625 -10.054688 -5.328125 -8.015625 C -4.515625 -5.984375 -3.929688 -3.695312 -3.578125 -1.15625 L -13.125 5.171875 C -13.4375 2.429688 -14.023438 -0.234375 -14.890625 -2.828125 C -15.765625 -5.421875 -16.816406 -7.644531 -18.046875 -9.5 C -19.097656 -11.082031 -20.144531 -12.0625 -21.1875 -12.4375 C -22.226562 -12.820312 -23.179688 -12.722656 -24.046875 -12.140625 C -24.597656 -11.785156 -24.972656 -11.320312 -25.171875 -10.75 C -25.378906 -10.175781 -25.472656 -9.421875 -25.453125 -8.484375 C -25.429688 -7.554688 -25.113281 -5.238281 -24.5 -1.53125 C -23.976562 1.84375 -23.835938 4.539062 -24.078125 6.5625 C -24.328125 8.59375 -24.957031 10.390625 -25.96875 11.953125 C -26.988281 13.523438 -28.476562 14.960938 -30.4375 16.265625 C -34.09375 18.679688 -37.820312 19.234375 -41.625 17.921875 C -45.425781 16.617188 -48.867188 13.640625 -51.953125 8.984375 C -54.671875 4.878906 -56.5 0.0625 -57.4375 -5.46875 L -46.96875 -7.65625 C -46.21875 -2.832031 -44.945312 0.925781 -43.15625 3.625 C -42.238281 5.019531 -41.320312 5.867188 -40.40625 6.171875 C -39.5 6.484375 -38.6875 6.40625 -37.96875 5.9375 C -37.1875 5.414062 -36.753906 4.546875 -36.671875 3.328125 C -36.597656 2.117188 -36.925781 -0.800781 -37.65625 -5.4375 C -38.382812 -9.875 -38.304688 -13.34375 -37.421875 -15.84375 C -36.535156 -18.34375 -34.753906 -20.476562 -32.078125 -22.25 Z M -32.078125 -22.25 "/></g></g></g><g fill="#ffffff" fill-opacity="1"><g transform="translate(107.441775, 232.854506)"><g><path d="M 6.1875 -5.609375 L 9.828125 -5.609375 L 9.828125 -0.40625 C 9.253906 -0.21875 8.675781 -0.0820312 8.09375 0 C 7.507812 0.09375 6.832031 0.140625 6.0625 0.140625 C 4.4375 0.140625 3.171875 -0.335938 2.265625 -1.296875 C 1.367188 -2.265625 0.921875 -3.617188 0.921875 -5.359375 C 0.921875 -6.472656 1.140625 -7.445312 1.578125 -8.28125 C 2.023438 -9.113281 2.671875 -9.75 3.515625 -10.1875 C 4.359375 -10.632812 5.34375 -10.859375 6.46875 -10.859375 C 7.613281 -10.859375 8.675781 -10.648438 9.65625 -10.234375 L 9.171875 -9.140625 C 8.210938 -9.546875 7.285156 -9.75 6.390625 -9.75 C 5.085938 -9.75 4.066406 -9.359375 3.328125 -8.578125 C 2.597656 -7.804688 2.234375 -6.734375 2.234375 -5.359375 C 2.234375 -3.910156 2.582031 -2.8125 3.28125 -2.0625 C 3.988281 -1.3125 5.03125 -0.9375 6.40625 -0.9375 C 7.144531 -0.9375 7.867188 -1.023438 8.578125 -1.203125 L 8.578125 -4.5 L 6.1875 -4.5 Z M 6.1875 -5.609375 "/></g></g><g transform="translate(118.362184, 232.854506)"><g><path d="M 4.953125 -8.171875 C 5.304688 -8.171875 5.625 -8.144531 5.90625 -8.09375 L 5.75 -6.953125 C 5.414062 -7.023438 5.117188 -7.0625 4.859375 -7.0625 C 4.210938 -7.0625 3.65625 -6.796875 3.1875 -6.265625 C 2.726562 -5.742188 2.5 -5.09375 2.5 -4.3125 L 2.5 0 L 1.296875 0 L 1.296875 -8.03125 L 2.296875 -8.03125 L 2.4375 -6.546875 L 2.484375 -6.546875 C 2.785156 -7.066406 3.144531 -7.46875 3.5625 -7.75 C 3.988281 -8.03125 4.453125 -8.171875 4.953125 -8.171875 Z M 4.953125 -8.171875 "/></g></g><g transform="translate(124.48523, 232.854506)"><g><path d="M 6.21875 0 L 5.984375 -1.140625 L 5.921875 -1.140625 C 5.523438 -0.640625 5.125 -0.300781 4.71875 -0.125 C 4.320312 0.0507812 3.828125 0.140625 3.234375 0.140625 C 2.441406 0.140625 1.816406 -0.0625 1.359375 -0.46875 C 0.910156 -0.875 0.6875 -1.457031 0.6875 -2.21875 C 0.6875 -3.84375 1.984375 -4.691406 4.578125 -4.765625 L 5.9375 -4.8125 L 5.9375 -5.3125 C 5.9375 -5.9375 5.800781 -6.398438 5.53125 -6.703125 C 5.257812 -7.003906 4.828125 -7.15625 4.234375 -7.15625 C 3.566406 -7.15625 2.8125 -6.953125 1.96875 -6.546875 L 1.59375 -7.46875 C 1.988281 -7.6875 2.421875 -7.851562 2.890625 -7.96875 C 3.359375 -8.09375 3.832031 -8.15625 4.3125 -8.15625 C 5.269531 -8.15625 5.976562 -7.941406 6.4375 -7.515625 C 6.894531 -7.097656 7.125 -6.421875 7.125 -5.484375 L 7.125 0 Z M 3.484375 -0.859375 C 4.234375 -0.859375 4.820312 -1.066406 5.25 -1.484375 C 5.6875 -1.898438 5.90625 -2.476562 5.90625 -3.21875 L 5.90625 -3.953125 L 4.6875 -3.890625 C 3.726562 -3.859375 3.035156 -3.707031 2.609375 -3.4375 C 2.179688 -3.175781 1.96875 -2.765625 1.96875 -2.203125 C 1.96875 -1.765625 2.097656 -1.429688 2.359375 -1.203125 C 2.628906 -0.972656 3.003906 -0.859375 3.484375 -0.859375 Z M 3.484375 -0.859375 "/></g></g><g transform="translate(132.827515, 232.854506)"><g><path d="M 5.03125 0.140625 C 4.5 0.140625 4.015625 0.046875 3.578125 -0.140625 C 3.148438 -0.335938 2.789062 -0.632812 2.5 -1.03125 L 2.421875 -1.03125 C 2.472656 -0.5625 2.5 -0.117188 2.5 0.296875 L 2.5 3.609375 L 1.296875 3.609375 L 1.296875 -8.03125 L 2.28125 -8.03125 L 2.453125 -6.921875 L 2.5 -6.921875 C 2.8125 -7.367188 3.175781 -7.6875 3.59375 -7.875 C 4.007812 -8.070312 4.488281 -8.171875 5.03125 -8.171875 C 6.09375 -8.171875 6.910156 -7.804688 7.484375 -7.078125 C 8.066406 -6.347656 8.359375 -5.328125 8.359375 -4.015625 C 8.359375 -2.703125 8.0625 -1.679688 7.46875 -0.953125 C 6.882812 -0.222656 6.070312 0.140625 5.03125 0.140625 Z M 4.84375 -7.140625 C 4.03125 -7.140625 3.4375 -6.910156 3.0625 -6.453125 C 2.695312 -6.003906 2.507812 -5.285156 2.5 -4.296875 L 2.5 -4.015625 C 2.5 -2.890625 2.6875 -2.082031 3.0625 -1.59375 C 3.445312 -1.113281 4.050781 -0.875 4.875 -0.875 C 5.570312 -0.875 6.113281 -1.15625 6.5 -1.71875 C 6.894531 -2.28125 7.09375 -3.050781 7.09375 -4.03125 C 7.09375 -5.03125 6.894531 -5.796875 6.5 -6.328125 C 6.113281 -6.867188 5.5625 -7.140625 4.84375 -7.140625 Z M 4.84375 -7.140625 "/></g></g><g transform="translate(142.019409, 232.854506)"><g><path d="M 6.78125 0 L 6.78125 -5.1875 C 6.78125 -5.84375 6.628906 -6.332031 6.328125 -6.65625 C 6.035156 -6.976562 5.570312 -7.140625 4.9375 -7.140625 C 4.09375 -7.140625 3.472656 -6.910156 3.078125 -6.453125 C 2.691406 -5.992188 2.5 -5.242188 2.5 -4.203125 L 2.5 0 L 1.296875 0 L 1.296875 -11.390625 L 2.5 -11.390625 L 2.5 -7.953125 C 2.5 -7.535156 2.484375 -7.191406 2.453125 -6.921875 L 2.515625 -6.921875 C 2.753906 -7.304688 3.09375 -7.609375 3.53125 -7.828125 C 3.976562 -8.046875 4.484375 -8.15625 5.046875 -8.15625 C 6.035156 -8.15625 6.773438 -7.921875 7.265625 -7.453125 C 7.753906 -6.992188 8 -6.253906 8 -5.234375 L 8 0 Z M 6.78125 0 "/></g></g><g transform="translate(151.225951, 232.854506)"><g/></g><g transform="translate(155.122436, 232.854506)"><g><path d="M 7.515625 -2.84375 C 7.515625 -1.90625 7.171875 -1.171875 6.484375 -0.640625 C 5.804688 -0.117188 4.878906 0.140625 3.703125 0.140625 C 2.429688 0.140625 1.457031 -0.0195312 0.78125 -0.34375 L 0.78125 -1.546875 C 1.21875 -1.359375 1.691406 -1.207031 2.203125 -1.09375 C 2.722656 -0.988281 3.238281 -0.9375 3.75 -0.9375 C 4.582031 -0.9375 5.207031 -1.09375 5.625 -1.40625 C 6.039062 -1.726562 6.25 -2.171875 6.25 -2.734375 C 6.25 -3.097656 6.175781 -3.398438 6.03125 -3.640625 C 5.882812 -3.878906 5.632812 -4.097656 5.28125 -4.296875 C 4.9375 -4.492188 4.40625 -4.722656 3.6875 -4.984375 C 2.695312 -5.335938 1.988281 -5.757812 1.5625 -6.25 C 1.132812 -6.738281 0.921875 -7.375 0.921875 -8.15625 C 0.921875 -8.976562 1.226562 -9.632812 1.84375 -10.125 C 2.46875 -10.613281 3.289062 -10.859375 4.3125 -10.859375 C 5.375 -10.859375 6.351562 -10.664062 7.25 -10.28125 L 6.859375 -9.1875 C 5.972656 -9.5625 5.113281 -9.75 4.28125 -9.75 C 3.613281 -9.75 3.09375 -9.609375 2.71875 -9.328125 C 2.351562 -9.046875 2.171875 -8.648438 2.171875 -8.140625 C 2.171875 -7.773438 2.238281 -7.472656 2.375 -7.234375 C 2.507812 -6.992188 2.738281 -6.773438 3.0625 -6.578125 C 3.394531 -6.378906 3.894531 -6.160156 4.5625 -5.921875 C 5.6875 -5.523438 6.457031 -5.097656 6.875 -4.640625 C 7.300781 -4.179688 7.515625 -3.582031 7.515625 -2.84375 Z M 7.515625 -2.84375 "/></g></g><g transform="translate(163.354857, 232.854506)"><g><path d="M 4.6875 0.140625 C 3.5 0.140625 2.5625 -0.21875 1.875 -0.9375 C 1.1875 -1.65625 0.84375 -2.660156 0.84375 -3.953125 C 0.84375 -5.242188 1.160156 -6.269531 1.796875 -7.03125 C 2.429688 -7.789062 3.285156 -8.171875 4.359375 -8.171875 C 5.367188 -8.171875 6.164062 -7.835938 6.75 -7.171875 C 7.332031 -6.515625 7.625 -5.644531 7.625 -4.5625 L 7.625 -3.796875 L 2.109375 -3.796875 C 2.128906 -2.847656 2.363281 -2.128906 2.8125 -1.640625 C 3.269531 -1.160156 3.90625 -0.921875 4.71875 -0.921875 C 5.582031 -0.921875 6.4375 -1.097656 7.28125 -1.453125 L 7.28125 -0.375 C 6.851562 -0.1875 6.445312 -0.0546875 6.0625 0.015625 C 5.6875 0.0976562 5.226562 0.140625 4.6875 0.140625 Z M 4.34375 -7.15625 C 3.707031 -7.15625 3.195312 -6.941406 2.8125 -6.515625 C 2.425781 -6.097656 2.195312 -5.519531 2.125 -4.78125 L 6.328125 -4.78125 C 6.328125 -5.550781 6.15625 -6.140625 5.8125 -6.546875 C 5.46875 -6.953125 4.976562 -7.15625 4.34375 -7.15625 Z M 4.34375 -7.15625 "/></g></g><g transform="translate(171.770384, 232.854506)"><g><path d="M 6.21875 0 L 5.984375 -1.140625 L 5.921875 -1.140625 C 5.523438 -0.640625 5.125 -0.300781 4.71875 -0.125 C 4.320312 0.0507812 3.828125 0.140625 3.234375 0.140625 C 2.441406 0.140625 1.816406 -0.0625 1.359375 -0.46875 C 0.910156 -0.875 0.6875 -1.457031 0.6875 -2.21875 C 0.6875 -3.84375 1.984375 -4.691406 4.578125 -4.765625 L 5.9375 -4.8125 L 5.9375 -5.3125 C 5.9375 -5.9375 5.800781 -6.398438 5.53125 -6.703125 C 5.257812 -7.003906 4.828125 -7.15625 4.234375 -7.15625 C 3.566406 -7.15625 2.8125 -6.953125 1.96875 -6.546875 L 1.59375 -7.46875 C 1.988281 -7.6875 2.421875 -7.851562 2.890625 -7.96875 C 3.359375 -8.09375 3.832031 -8.15625 4.3125 -8.15625 C 5.269531 -8.15625 5.976562 -7.941406 6.4375 -7.515625 C 6.894531 -7.097656 7.125 -6.421875 7.125 -5.484375 L 7.125 0 Z M 3.484375 -0.859375 C 4.234375 -0.859375 4.820312 -1.066406 5.25 -1.484375 C 5.6875 -1.898438 5.90625 -2.476562 5.90625 -3.21875 L 5.90625 -3.953125 L 4.6875 -3.890625 C 3.726562 -3.859375 3.035156 -3.707031 2.609375 -3.4375 C 2.179688 -3.175781 1.96875 -2.765625 1.96875 -2.203125 C 1.96875 -1.765625 2.097656 -1.429688 2.359375 -1.203125 C 2.628906 -0.972656 3.003906 -0.859375 3.484375 -0.859375 Z M 3.484375 -0.859375 "/></g></g><g transform="translate(180.112668, 232.854506)"><g><path d="M 4.953125 -8.171875 C 5.304688 -8.171875 5.625 -8.144531 5.90625 -8.09375 L 5.75 -6.953125 C 5.414062 -7.023438 5.117188 -7.0625 4.859375 -7.0625 C 4.210938 -7.0625 3.65625 -6.796875 3.1875 -6.265625 C 2.726562 -5.742188 2.5 -5.09375 2.5 -4.3125 L 2.5 0 L 1.296875 0 L 1.296875 -8.03125 L 2.296875 -8.03125 L 2.4375 -6.546875 L 2.484375 -6.546875 C 2.785156 -7.066406 3.144531 -7.46875 3.5625 -7.75 C 3.988281 -8.03125 4.453125 -8.171875 4.953125 -8.171875 Z M 4.953125 -8.171875 "/></g></g><g transform="translate(186.235715, 232.854506)"><g><path d="M 4.5 0.140625 C 3.332031 0.140625 2.429688 -0.210938 1.796875 -0.921875 C 1.160156 -1.640625 0.84375 -2.65625 0.84375 -3.96875 C 0.84375 -5.3125 1.164062 -6.347656 1.8125 -7.078125 C 2.457031 -7.804688 3.378906 -8.171875 4.578125 -8.171875 C 4.960938 -8.171875 5.347656 -8.128906 5.734375 -8.046875 C 6.117188 -7.960938 6.421875 -7.863281 6.640625 -7.75 L 6.265625 -6.71875 C 5.992188 -6.832031 5.703125 -6.921875 5.390625 -6.984375 C 5.078125 -7.054688 4.796875 -7.09375 4.546875 -7.09375 C 2.921875 -7.09375 2.109375 -6.054688 2.109375 -3.984375 C 2.109375 -2.992188 2.304688 -2.234375 2.703125 -1.703125 C 3.097656 -1.179688 3.6875 -0.921875 4.46875 -0.921875 C 5.132812 -0.921875 5.820312 -1.0625 6.53125 -1.34375 L 6.53125 -0.265625 C 5.988281 0.00390625 5.3125 0.140625 4.5 0.140625 Z M 4.5 0.140625 "/></g></g><g transform="translate(193.376828, 232.854506)"><g><path d="M 6.78125 0 L 6.78125 -5.1875 C 6.78125 -5.84375 6.628906 -6.332031 6.328125 -6.65625 C 6.035156 -6.976562 5.570312 -7.140625 4.9375 -7.140625 C 4.09375 -7.140625 3.472656 -6.910156 3.078125 -6.453125 C 2.691406 -5.992188 2.5 -5.242188 2.5 -4.203125 L 2.5 0 L 1.296875 0 L 1.296875 -11.390625 L 2.5 -11.390625 L 2.5 -7.953125 C 2.5 -7.535156 2.484375 -7.191406 2.453125 -6.921875 L 2.515625 -6.921875 C 2.753906 -7.304688 3.09375 -7.609375 3.53125 -7.828125 C 3.976562 -8.046875 4.484375 -8.15625 5.046875 -8.15625 C 6.035156 -8.15625 6.773438 -7.921875 7.265625 -7.453125 C 7.753906 -6.992188 8 -6.253906 8 -5.234375 L 8 0 Z M 6.78125 0 "/></g></g><g transform="translate(202.58337, 232.854506)"><g/></g><g transform="translate(206.479854, 232.854506)"><g><path d="M 7.515625 -2.84375 C 7.515625 -1.90625 7.171875 -1.171875 6.484375 -0.640625 C 5.804688 -0.117188 4.878906 0.140625 3.703125 0.140625 C 2.429688 0.140625 1.457031 -0.0195312 0.78125 -0.34375 L 0.78125 -1.546875 C 1.21875 -1.359375 1.691406 -1.207031 2.203125 -1.09375 C 2.722656 -0.988281 3.238281 -0.9375 3.75 -0.9375 C 4.582031 -0.9375 5.207031 -1.09375 5.625 -1.40625 C 6.039062 -1.726562 6.25 -2.171875 6.25 -2.734375 C 6.25 -3.097656 6.175781 -3.398438 6.03125 -3.640625 C 5.882812 -3.878906 5.632812 -4.097656 5.28125 -4.296875 C 4.9375 -4.492188 4.40625 -4.722656 3.6875 -4.984375 C 2.695312 -5.335938 1.988281 -5.757812 1.5625 -6.25 C 1.132812 -6.738281 0.921875 -7.375 0.921875 -8.15625 C 0.921875 -8.976562 1.226562 -9.632812 1.84375 -10.125 C 2.46875 -10.613281 3.289062 -10.859375 4.3125 -10.859375 C 5.375 -10.859375 6.351562 -10.664062 7.25 -10.28125 L 6.859375 -9.1875 C 5.972656 -9.5625 5.113281 -9.75 4.28125 -9.75 C 3.613281 -9.75 3.09375 -9.609375 2.71875 -9.328125 C 2.351562 -9.046875 2.171875 -8.648438 2.171875 -8.140625 C 2.171875 -7.773438 2.238281 -7.472656 2.375 -7.234375 C 2.507812 -6.992188 2.738281 -6.773438 3.0625 -6.578125 C 3.394531 -6.378906 3.894531 -6.160156 4.5625 -5.921875 C 5.6875 -5.523438 6.457031 -5.097656 6.875 -4.640625 C 7.300781 -4.179688 7.515625 -3.582031 7.515625 -2.84375 Z M 7.515625 -2.84375 "/></g></g><g transform="translate(214.712276, 232.854506)"><g><path d="M 6.21875 0 L 5.984375 -1.140625 L 5.921875 -1.140625 C 5.523438 -0.640625 5.125 -0.300781 4.71875 -0.125 C 4.320312 0.0507812 3.828125 0.140625 3.234375 0.140625 C 2.441406 0.140625 1.816406 -0.0625 1.359375 -0.46875 C 0.910156 -0.875 0.6875 -1.457031 0.6875 -2.21875 C 0.6875 -3.84375 1.984375 -4.691406 4.578125 -4.765625 L 5.9375 -4.8125 L 5.9375 -5.3125 C 5.9375 -5.9375 5.800781 -6.398438 5.53125 -6.703125 C 5.257812 -7.003906 4.828125 -7.15625 4.234375 -7.15625 C 3.566406 -7.15625 2.8125 -6.953125 1.96875 -6.546875 L 1.59375 -7.46875 C 1.988281 -7.6875 2.421875 -7.851562 2.890625 -7.96875 C 3.359375 -8.09375 3.832031 -8.15625 4.3125 -8.15625 C 5.269531 -8.15625 5.976562 -7.941406 6.4375 -7.515625 C 6.894531 -7.097656 7.125 -6.421875 7.125 -5.484375 L 7.125 0 Z M 3.484375 -0.859375 C 4.234375 -0.859375 4.820312 -1.066406 5.25 -1.484375 C 5.6875 -1.898438 5.90625 -2.476562 5.90625 -3.21875 L 5.90625 -3.953125 L 4.6875 -3.890625 C 3.726562 -3.859375 3.035156 -3.707031 2.609375 -3.4375 C 2.179688 -3.175781 1.96875 -2.765625 1.96875 -2.203125 C 1.96875 -1.765625 2.097656 -1.429688 2.359375 -1.203125 C 2.628906 -0.972656 3.003906 -0.859375 3.484375 -0.859375 Z M 3.484375 -0.859375 "/></g></g><g transform="translate(223.05456, 232.854506)"><g><path d="M 6.78125 0 L 6.78125 -5.1875 C 6.78125 -5.84375 6.628906 -6.332031 6.328125 -6.65625 C 6.035156 -6.976562 5.570312 -7.140625 4.9375 -7.140625 C 4.09375 -7.140625 3.472656 -6.910156 3.078125 -6.453125 C 2.691406 -6.003906 2.5 -5.257812 2.5 -4.21875 L 2.5 0 L 1.296875 0 L 1.296875 -8.03125 L 2.28125 -8.03125 L 2.46875 -6.921875 L 2.53125 -6.921875 C 2.78125 -7.316406 3.128906 -7.625 3.578125 -7.84375 C 4.023438 -8.0625 4.523438 -8.171875 5.078125 -8.171875 C 6.046875 -8.171875 6.773438 -7.9375 7.265625 -7.46875 C 7.753906 -7.007812 8 -6.265625 8 -5.234375 L 8 0 Z M 6.78125 0 "/></g></g><g transform="translate(232.261103, 232.854506)"><g><path d="M 6.75 -1.078125 L 6.6875 -1.078125 C 6.125 -0.265625 5.285156 0.140625 4.171875 0.140625 C 3.117188 0.140625 2.300781 -0.210938 1.71875 -0.921875 C 1.132812 -1.640625 0.84375 -2.660156 0.84375 -3.984375 C 0.84375 -5.316406 1.132812 -6.347656 1.71875 -7.078125 C 2.300781 -7.804688 3.117188 -8.171875 4.171875 -8.171875 C 5.253906 -8.171875 6.085938 -7.773438 6.671875 -6.984375 L 6.765625 -6.984375 L 6.71875 -7.5625 L 6.6875 -8.125 L 6.6875 -11.390625 L 7.90625 -11.390625 L 7.90625 0 L 6.921875 0 Z M 4.328125 -0.875 C 5.148438 -0.875 5.75 -1.097656 6.125 -1.546875 C 6.5 -2.003906 6.6875 -2.734375 6.6875 -3.734375 L 6.6875 -3.984375 C 6.6875 -5.128906 6.492188 -5.941406 6.109375 -6.421875 C 5.734375 -6.910156 5.132812 -7.15625 4.3125 -7.15625 C 3.59375 -7.15625 3.046875 -6.878906 2.671875 -6.328125 C 2.296875 -5.773438 2.109375 -4.992188 2.109375 -3.984375 C 2.109375 -2.953125 2.296875 -2.175781 2.671875 -1.65625 C 3.046875 -1.132812 3.597656 -0.875 4.328125 -0.875 Z M 4.328125 -0.875 "/></g></g><g transform="translate(241.452996, 232.854506)"><g><path d="M 5.03125 -8.15625 C 6.082031 -8.15625 6.898438 -7.796875 7.484375 -7.078125 C 8.066406 -6.359375 8.359375 -5.335938 8.359375 -4.015625 C 8.359375 -2.703125 8.0625 -1.679688 7.46875 -0.953125 C 6.882812 -0.222656 6.070312 0.140625 5.03125 0.140625 C 4.5 0.140625 4.015625 0.046875 3.578125 -0.140625 C 3.148438 -0.335938 2.789062 -0.632812 2.5 -1.03125 L 2.421875 -1.03125 L 2.15625 0 L 1.296875 0 L 1.296875 -11.390625 L 2.5 -11.390625 L 2.5 -8.625 C 2.5 -8.007812 2.484375 -7.453125 2.453125 -6.953125 L 2.5 -6.953125 C 3.070312 -7.753906 3.914062 -8.15625 5.03125 -8.15625 Z M 4.84375 -7.140625 C 4.019531 -7.140625 3.421875 -6.898438 3.046875 -6.421875 C 2.679688 -5.953125 2.5 -5.148438 2.5 -4.015625 C 2.5 -2.890625 2.6875 -2.082031 3.0625 -1.59375 C 3.445312 -1.113281 4.050781 -0.875 4.875 -0.875 C 5.625 -0.875 6.179688 -1.144531 6.546875 -1.6875 C 6.910156 -2.226562 7.09375 -3.007812 7.09375 -4.03125 C 7.09375 -5.082031 6.910156 -5.863281 6.546875 -6.375 C 6.179688 -6.882812 5.613281 -7.140625 4.84375 -7.140625 Z M 4.84375 -7.140625 "/></g></g><g transform="translate(250.64489, 232.854506)"><g><path d="M 8.21875 -4.015625 C 8.21875 -2.710938 7.882812 -1.691406 7.21875 -0.953125 C 6.5625 -0.222656 5.65625 0.140625 4.5 0.140625 C 3.78125 0.140625 3.140625 -0.0234375 2.578125 -0.359375 C 2.023438 -0.691406 1.597656 -1.171875 1.296875 -1.796875 C 0.992188 -2.429688 0.84375 -3.171875 0.84375 -4.015625 C 0.84375 -5.328125 1.171875 -6.347656 1.828125 -7.078125 C 2.484375 -7.804688 3.390625 -8.171875 4.546875 -8.171875 C 5.671875 -8.171875 6.5625 -7.796875 7.21875 -7.046875 C 7.882812 -6.304688 8.21875 -5.296875 8.21875 -4.015625 Z M 2.109375 -4.015625 C 2.109375 -2.992188 2.3125 -2.210938 2.71875 -1.671875 C 3.125 -1.140625 3.726562 -0.875 4.53125 -0.875 C 5.320312 -0.875 5.921875 -1.140625 6.328125 -1.671875 C 6.742188 -2.203125 6.953125 -2.984375 6.953125 -4.015625 C 6.953125 -5.035156 6.742188 -5.8125 6.328125 -6.34375 C 5.921875 -6.875 5.316406 -7.140625 4.515625 -7.140625 C 3.710938 -7.140625 3.109375 -6.878906 2.703125 -6.359375 C 2.304688 -5.835938 2.109375 -5.054688 2.109375 -4.015625 Z M 2.109375 -4.015625 "/></g></g><g transform="translate(259.704948, 232.854506)"><g><path d="M 3.21875 -4.109375 L 0.4375 -8.03125 L 1.8125 -8.03125 L 3.9375 -4.953125 L 6.046875 -8.03125 L 7.40625 -8.03125 L 4.625 -4.109375 L 7.5625 0 L 6.1875 0 L 3.9375 -3.25 L 1.65625 0 L 0.28125 0 Z M 3.21875 -4.109375 "/></g></g></g></svg>