<svg fill="#fff" xmlns="http://www.w3.org/2000/svg" xmlns:xlink="http://www.w3.org/1999/xlink" width="500" zoomAndPan="magnify" viewBox="0 0 375 374.999991" height="500" preserveAspectRatio="xMidYMid meet" version="1.0"><defs><g/></defs><g fill="#ffffff" fill-opacity="1"><g transform="translate(94.63312, 216.585376)"><g><path d="M 44.984375 -51.6875 L 83.078125 -51.6875 L 83.078125 -4.109375 C 72.734375 -0.566406 61.363281 1.203125 48.96875 1.203125 C 35.363281 1.203125 24.847656 -2.738281 17.421875 -10.625 C 9.992188 -18.519531 6.28125 -29.769531 6.28125 -44.375 C 6.28125 -58.625 10.34375 -69.710938 18.46875 -77.640625 C 26.601562 -85.578125 38 -89.546875 52.65625 -89.546875 C 58.207031 -89.546875 63.445312 -89.019531 68.375 -87.96875 C 73.3125 -86.925781 77.609375 -85.597656 81.265625 -83.984375 L 73.71875 -65.265625 C 67.363281 -68.410156 60.378906 -69.984375 52.765625 -69.984375 C 45.804688 -69.984375 40.425781 -67.71875 36.625 -63.1875 C 32.820312 -58.65625 30.921875 -52.1875 30.921875 -43.78125 C 30.921875 -35.519531 32.640625 -29.226562 36.078125 -24.90625 C 39.515625 -20.582031 44.472656 -18.421875 50.953125 -18.421875 C 54.492188 -18.421875 57.753906 -18.757812 60.734375 -19.4375 L 60.734375 -33.265625 L 44.984375 -33.265625 Z M 44.984375 -51.6875 "/></g></g></g><g fill="#ffffff" fill-opacity="1"><g transform="translate(220.686002, 63.968416)"><g><path d="M -67.265625 26.8125 C -67.265625 21.332031 -65.875 16.46875 -63.09375 12.21875 C -60.320312 7.976562 -56.316406 4.679688 -51.078125 2.328125 C -45.847656 -0.0234375 -39.710938 -1.203125 -32.671875 -1.203125 C -26.785156 -1.203125 -21.847656 -0.789062 -17.859375 0.03125 C -13.878906 0.851562 -9.738281 2.289062 -5.4375 4.34375 L -5.4375 25.59375 C -9.976562 23.257812 -14.703125 21.4375 -19.609375 20.125 C -24.523438 18.820312 -29.035156 18.171875 -33.140625 18.171875 C -36.691406 18.171875 -39.289062 18.785156 -40.9375 20.015625 C -42.582031 21.242188 -43.40625 22.820312 -43.40625 24.75 C -43.40625 25.957031 -43.070312 27.015625 -42.40625 27.921875 C -41.75 28.828125 -40.6875 29.742188 -39.21875 30.671875 C -37.75 31.597656 -33.832031 33.488281 -27.46875 36.34375 C -21.71875 38.957031 -17.398438 41.492188 -14.515625 43.953125 C -11.640625 46.410156 -9.503906 49.226562 -8.109375 52.40625 C -6.722656 55.582031 -6.03125 59.347656 -6.03125 63.703125 C -6.03125 71.828125 -8.988281 78.164062 -14.90625 82.71875 C -20.832031 87.269531 -28.96875 89.546875 -39.3125 89.546875 C -48.445312 89.546875 -57.765625 87.429688 -67.265625 83.203125 L -59.953125 64.78125 C -51.703125 68.570312 -44.578125 70.46875 -38.578125 70.46875 C -35.484375 70.46875 -33.226562 69.921875 -31.8125 68.828125 C -30.40625 67.742188 -29.703125 66.394531 -29.703125 64.78125 C -29.703125 63.050781 -30.597656 61.5 -32.390625 60.125 C -34.179688 58.757812 -39.039062 56.269531 -46.96875 52.65625 C -54.582031 49.226562 -59.867188 45.550781 -62.828125 41.625 C -65.785156 37.707031 -67.265625 32.769531 -67.265625 26.8125 Z M -67.265625 26.8125 "/></g></g></g><g fill="#ffffff" fill-opacity="1"><g transform="translate(259.268326, 223.310699)"><g><path d="M -55.375 -38.4375 C -51.132812 -41.25 -46.648438 -42.664062 -41.921875 -42.6875 C -37.203125 -42.707031 -32.582031 -41.296875 -28.0625 -38.453125 C -23.539062 -35.609375 -19.472656 -31.445312 -15.859375 -25.96875 C -12.835938 -21.414062 -10.617188 -17.378906 -9.203125 -13.859375 C -7.796875 -10.335938 -6.785156 -6.378906 -6.171875 -1.984375 L -22.65625 8.9375 C -23.1875 4.207031 -24.207031 -0.394531 -25.71875 -4.875 C -27.226562 -9.363281 -29.039062 -13.203125 -31.15625 -16.390625 C -32.976562 -19.140625 -34.785156 -20.835938 -36.578125 -21.484375 C -38.378906 -22.140625 -40.03125 -21.972656 -41.53125 -20.984375 C -42.46875 -20.359375 -43.117188 -19.550781 -43.484375 -18.5625 C -43.847656 -17.582031 -44.007812 -16.28125 -43.96875 -14.65625 C -43.925781 -13.039062 -43.382812 -9.035156 -42.34375 -2.640625 C -41.414062 3.179688 -41.164062 7.835938 -41.59375 11.328125 C -42.019531 14.828125 -43.109375 17.929688 -44.859375 20.640625 C -46.617188 23.347656 -49.1875 25.820312 -52.5625 28.0625 C -58.863281 32.238281 -65.296875 33.203125 -71.859375 30.953125 C -78.429688 28.703125 -84.378906 23.554688 -89.703125 15.515625 C -94.398438 8.421875 -97.554688 0.101562 -99.171875 -9.4375 L -81.09375 -13.234375 C -79.789062 -4.890625 -77.597656 1.609375 -74.515625 6.265625 C -72.921875 8.671875 -71.335938 10.140625 -69.765625 10.671875 C -68.203125 11.210938 -66.796875 11.066406 -65.546875 10.234375 C -64.210938 9.347656 -63.472656 7.859375 -63.328125 5.765625 C -63.191406 3.679688 -63.753906 -1.375 -65.015625 -9.40625 C -66.265625 -17.070312 -66.128906 -23.0625 -64.609375 -27.375 C -63.085938 -31.6875 -60.007812 -35.375 -55.375 -38.4375 Z M -55.375 -38.4375 "/></g></g></g><g fill="#ffffff" fill-opacity="1"><g transform="translate(49.275798, 290.711379)"><g><path d="M 10.671875 -9.6875 L 16.953125 -9.6875 L 16.953125 -0.6875 C 15.972656 -0.382812 14.976562 -0.15625 13.96875 0 C 12.957031 0.164062 11.785156 0.25 10.453125 0.25 C 7.648438 0.25 5.46875 -0.578125 3.90625 -2.234375 C 2.351562 -3.898438 1.578125 -6.234375 1.578125 -9.234375 C 1.578125 -11.160156 1.960938 -12.84375 2.734375 -14.28125 C 3.503906 -15.726562 4.613281 -16.832031 6.0625 -17.59375 C 7.519531 -18.363281 9.21875 -18.75 11.15625 -18.75 C 13.132812 -18.75 14.972656 -18.382812 16.671875 -17.65625 L 15.84375 -15.765625 C 14.175781 -16.472656 12.570312 -16.828125 11.03125 -16.828125 C 8.769531 -16.828125 7.007812 -16.15625 5.75 -14.8125 C 4.488281 -13.476562 3.859375 -11.617188 3.859375 -9.234375 C 3.859375 -6.742188 4.46875 -4.851562 5.6875 -3.5625 C 6.90625 -2.269531 8.691406 -1.625 11.046875 -1.625 C 12.328125 -1.625 13.578125 -1.773438 14.796875 -2.078125 L 14.796875 -7.765625 L 10.671875 -7.765625 Z M 10.671875 -9.6875 "/></g></g><g transform="translate(68.130386, 290.711379)"><g><path d="M 8.546875 -14.109375 C 9.160156 -14.109375 9.710938 -14.054688 10.203125 -13.953125 L 9.90625 -12.015625 C 9.332031 -12.140625 8.828125 -12.203125 8.390625 -12.203125 C 7.273438 -12.203125 6.316406 -11.742188 5.515625 -10.828125 C 4.722656 -9.921875 4.328125 -8.789062 4.328125 -7.4375 L 4.328125 0 L 2.21875 0 L 2.21875 -13.859375 L 3.953125 -13.859375 L 4.203125 -11.296875 L 4.296875 -11.296875 C 4.804688 -12.191406 5.425781 -12.882812 6.15625 -13.375 C 6.882812 -13.863281 7.679688 -14.109375 8.546875 -14.109375 Z M 8.546875 -14.109375 "/></g></g><g transform="translate(78.702106, 290.711379)"><g><path d="M 10.75 0 L 10.328125 -1.96875 L 10.234375 -1.96875 C 9.535156 -1.101562 8.84375 -0.515625 8.15625 -0.203125 C 7.46875 0.0976562 6.613281 0.25 5.59375 0.25 C 4.21875 0.25 3.140625 -0.101562 2.359375 -0.8125 C 1.578125 -1.519531 1.1875 -2.523438 1.1875 -3.828125 C 1.1875 -6.628906 3.425781 -8.097656 7.90625 -8.234375 L 10.25 -8.3125 L 10.25 -9.171875 C 10.25 -10.253906 10.015625 -11.050781 9.546875 -11.5625 C 9.078125 -12.082031 8.332031 -12.34375 7.3125 -12.34375 C 6.15625 -12.34375 4.847656 -11.992188 3.390625 -11.296875 L 2.75 -12.890625 C 3.425781 -13.265625 4.171875 -13.554688 4.984375 -13.765625 C 5.796875 -13.972656 6.613281 -14.078125 7.4375 -14.078125 C 9.082031 -14.078125 10.300781 -13.710938 11.09375 -12.984375 C 11.894531 -12.253906 12.296875 -11.078125 12.296875 -9.453125 L 12.296875 0 Z M 6 -1.484375 C 7.3125 -1.484375 8.335938 -1.835938 9.078125 -2.546875 C 9.828125 -3.265625 10.203125 -4.269531 10.203125 -5.5625 L 10.203125 -6.8125 L 8.109375 -6.71875 C 6.429688 -6.664062 5.222656 -6.410156 4.484375 -5.953125 C 3.753906 -5.492188 3.390625 -4.78125 3.390625 -3.8125 C 3.390625 -3.050781 3.617188 -2.472656 4.078125 -2.078125 C 4.535156 -1.679688 5.175781 -1.484375 6 -1.484375 Z M 6 -1.484375 "/></g></g><g transform="translate(93.105443, 290.711379)"><g><path d="M 8.671875 0.25 C 7.765625 0.25 6.9375 0.0820312 6.1875 -0.25 C 5.445312 -0.582031 4.828125 -1.09375 4.328125 -1.78125 L 4.171875 -1.78125 C 4.273438 -0.96875 4.328125 -0.203125 4.328125 0.515625 L 4.328125 6.21875 L 2.21875 6.21875 L 2.21875 -13.859375 L 3.9375 -13.859375 L 4.21875 -11.953125 L 4.328125 -11.953125 C 4.859375 -12.710938 5.484375 -13.257812 6.203125 -13.59375 C 6.921875 -13.9375 7.742188 -14.109375 8.671875 -14.109375 C 10.503906 -14.109375 11.921875 -13.476562 12.921875 -12.21875 C 13.921875 -10.96875 14.421875 -9.207031 14.421875 -6.9375 C 14.421875 -4.664062 13.910156 -2.898438 12.890625 -1.640625 C 11.878906 -0.378906 10.472656 0.25 8.671875 0.25 Z M 8.375 -12.328125 C 6.957031 -12.328125 5.929688 -11.929688 5.296875 -11.140625 C 4.660156 -10.359375 4.335938 -9.113281 4.328125 -7.40625 L 4.328125 -6.9375 C 4.328125 -4.988281 4.648438 -3.59375 5.296875 -2.75 C 5.941406 -1.914062 6.984375 -1.5 8.421875 -1.5 C 9.617188 -1.5 10.554688 -1.984375 11.234375 -2.953125 C 11.910156 -3.921875 12.25 -5.257812 12.25 -6.96875 C 12.25 -8.695312 11.910156 -10.019531 11.234375 -10.9375 C 10.554688 -11.863281 9.601562 -12.328125 8.375 -12.328125 Z M 8.375 -12.328125 "/></g></g><g transform="translate(108.975669, 290.711379)"><g><path d="M 11.703125 0 L 11.703125 -8.96875 C 11.703125 -10.09375 11.445312 -10.929688 10.9375 -11.484375 C 10.425781 -12.046875 9.617188 -12.328125 8.515625 -12.328125 C 7.054688 -12.328125 5.992188 -11.929688 5.328125 -11.140625 C 4.660156 -10.347656 4.328125 -9.050781 4.328125 -7.25 L 4.328125 0 L 2.21875 0 L 2.21875 -19.671875 L 4.328125 -19.671875 L 4.328125 -13.71875 C 4.328125 -13 4.289062 -12.40625 4.21875 -11.9375 L 4.34375 -11.9375 C 4.757812 -12.601562 5.347656 -13.125 6.109375 -13.5 C 6.867188 -13.882812 7.738281 -14.078125 8.71875 -14.078125 C 10.414062 -14.078125 11.6875 -13.675781 12.53125 -12.875 C 13.382812 -12.070312 13.8125 -10.789062 13.8125 -9.03125 L 13.8125 0 Z M 11.703125 0 "/></g></g><g transform="translate(124.871187, 290.711379)"><g/></g><g transform="translate(131.598646, 290.711379)"><g><path d="M 12.96875 -4.921875 C 12.96875 -3.296875 12.378906 -2.023438 11.203125 -1.109375 C 10.023438 -0.203125 8.421875 0.25 6.390625 0.25 C 4.203125 0.25 2.519531 -0.03125 1.34375 -0.59375 L 1.34375 -2.671875 C 2.101562 -2.347656 2.925781 -2.09375 3.8125 -1.90625 C 4.707031 -1.71875 5.59375 -1.625 6.46875 -1.625 C 7.90625 -1.625 8.984375 -1.894531 9.703125 -2.4375 C 10.429688 -2.988281 10.796875 -3.75 10.796875 -4.71875 C 10.796875 -5.351562 10.664062 -5.875 10.40625 -6.28125 C 10.15625 -6.695312 9.726562 -7.078125 9.125 -7.421875 C 8.519531 -7.765625 7.601562 -8.15625 6.375 -8.59375 C 4.65625 -9.207031 3.425781 -9.9375 2.6875 -10.78125 C 1.945312 -11.625 1.578125 -12.722656 1.578125 -14.078125 C 1.578125 -15.503906 2.113281 -16.640625 3.1875 -17.484375 C 4.257812 -18.328125 5.675781 -18.75 7.4375 -18.75 C 9.269531 -18.75 10.957031 -18.410156 12.5 -17.734375 L 11.828125 -15.859375 C 10.304688 -16.503906 8.828125 -16.828125 7.390625 -16.828125 C 6.242188 -16.828125 5.347656 -16.582031 4.703125 -16.09375 C 4.066406 -15.601562 3.75 -14.925781 3.75 -14.0625 C 3.75 -13.414062 3.867188 -12.890625 4.109375 -12.484375 C 4.347656 -12.078125 4.742188 -11.703125 5.296875 -11.359375 C 5.859375 -11.015625 6.71875 -10.640625 7.875 -10.234375 C 9.8125 -9.535156 11.144531 -8.789062 11.875 -8 C 12.601562 -7.207031 12.96875 -6.179688 12.96875 -4.921875 Z M 12.96875 -4.921875 "/></g></g><g transform="translate(145.812299, 290.711379)"><g><path d="M 8.078125 0.25 C 6.023438 0.25 4.40625 -0.367188 3.21875 -1.609375 C 2.039062 -2.859375 1.453125 -4.59375 1.453125 -6.8125 C 1.453125 -9.050781 2 -10.828125 3.09375 -12.140625 C 4.195312 -13.453125 5.675781 -14.109375 7.53125 -14.109375 C 9.269531 -14.109375 10.644531 -13.535156 11.65625 -12.390625 C 12.664062 -11.253906 13.171875 -9.75 13.171875 -7.875 L 13.171875 -6.546875 L 3.625 -6.546875 C 3.664062 -4.921875 4.078125 -3.6875 4.859375 -2.84375 C 5.640625 -2 6.738281 -1.578125 8.15625 -1.578125 C 9.644531 -1.578125 11.117188 -1.890625 12.578125 -2.515625 L 12.578125 -0.640625 C 11.835938 -0.328125 11.132812 -0.101562 10.46875 0.03125 C 9.8125 0.175781 9.015625 0.25 8.078125 0.25 Z M 7.515625 -12.34375 C 6.398438 -12.34375 5.507812 -11.976562 4.84375 -11.25 C 4.1875 -10.53125 3.796875 -9.53125 3.671875 -8.25 L 10.921875 -8.25 C 10.921875 -9.570312 10.625 -10.582031 10.03125 -11.28125 C 9.445312 -11.988281 8.609375 -12.34375 7.515625 -12.34375 Z M 7.515625 -12.34375 "/></g></g><g transform="translate(160.342092, 290.711379)"><g><path d="M 10.75 0 L 10.328125 -1.96875 L 10.234375 -1.96875 C 9.535156 -1.101562 8.84375 -0.515625 8.15625 -0.203125 C 7.46875 0.0976562 6.613281 0.25 5.59375 0.25 C 4.21875 0.25 3.140625 -0.101562 2.359375 -0.8125 C 1.578125 -1.519531 1.1875 -2.523438 1.1875 -3.828125 C 1.1875 -6.628906 3.425781 -8.097656 7.90625 -8.234375 L 10.25 -8.3125 L 10.25 -9.171875 C 10.25 -10.253906 10.015625 -11.050781 9.546875 -11.5625 C 9.078125 -12.082031 8.332031 -12.34375 7.3125 -12.34375 C 6.15625 -12.34375 4.847656 -11.992188 3.390625 -11.296875 L 2.75 -12.890625 C 3.425781 -13.265625 4.171875 -13.554688 4.984375 -13.765625 C 5.796875 -13.972656 6.613281 -14.078125 7.4375 -14.078125 C 9.082031 -14.078125 10.300781 -13.710938 11.09375 -12.984375 C 11.894531 -12.253906 12.296875 -11.078125 12.296875 -9.453125 L 12.296875 0 Z M 6 -1.484375 C 7.3125 -1.484375 8.335938 -1.835938 9.078125 -2.546875 C 9.828125 -3.265625 10.203125 -4.269531 10.203125 -5.5625 L 10.203125 -6.8125 L 8.109375 -6.71875 C 6.429688 -6.664062 5.222656 -6.410156 4.484375 -5.953125 C 3.753906 -5.492188 3.390625 -4.78125 3.390625 -3.8125 C 3.390625 -3.050781 3.617188 -2.472656 4.078125 -2.078125 C 4.535156 -1.679688 5.175781 -1.484375 6 -1.484375 Z M 6 -1.484375 "/></g></g><g transform="translate(174.745428, 290.711379)"><g><path d="M 8.546875 -14.109375 C 9.160156 -14.109375 9.710938 -14.054688 10.203125 -13.953125 L 9.90625 -12.015625 C 9.332031 -12.140625 8.828125 -12.203125 8.390625 -12.203125 C 7.273438 -12.203125 6.316406 -11.742188 5.515625 -10.828125 C 4.722656 -9.921875 4.328125 -8.789062 4.328125 -7.4375 L 4.328125 0 L 2.21875 0 L 2.21875 -13.859375 L 3.953125 -13.859375 L 4.203125 -11.296875 L 4.296875 -11.296875 C 4.804688 -12.191406 5.425781 -12.882812 6.15625 -13.375 C 6.882812 -13.863281 7.679688 -14.109375 8.546875 -14.109375 Z M 8.546875 -14.109375 "/></g></g><g transform="translate(185.317149, 290.711379)"><g><path d="M 7.765625 0.25 C 5.753906 0.25 4.195312 -0.363281 3.09375 -1.59375 C 2 -2.832031 1.453125 -4.582031 1.453125 -6.84375 C 1.453125 -9.15625 2.007812 -10.941406 3.125 -12.203125 C 4.238281 -13.472656 5.832031 -14.109375 7.90625 -14.109375 C 8.570312 -14.109375 9.234375 -14.035156 9.890625 -13.890625 C 10.554688 -13.742188 11.082031 -13.578125 11.46875 -13.390625 L 10.828125 -11.609375 C 10.359375 -11.796875 9.847656 -11.945312 9.296875 -12.0625 C 8.753906 -12.1875 8.269531 -12.25 7.84375 -12.25 C 5.03125 -12.25 3.625 -10.453125 3.625 -6.859375 C 3.625 -5.160156 3.96875 -3.851562 4.65625 -2.9375 C 5.34375 -2.03125 6.363281 -1.578125 7.71875 -1.578125 C 8.863281 -1.578125 10.046875 -1.828125 11.265625 -2.328125 L 11.265625 -0.46875 C 10.335938 0.0078125 9.171875 0.25 7.765625 0.25 Z M 7.765625 0.25 "/></g></g><g transform="translate(197.646608, 290.711379)"><g><path d="M 11.703125 0 L 11.703125 -8.96875 C 11.703125 -10.09375 11.445312 -10.929688 10.9375 -11.484375 C 10.425781 -12.046875 9.617188 -12.328125 8.515625 -12.328125 C 7.054688 -12.328125 5.992188 -11.929688 5.328125 -11.140625 C 4.660156 -10.347656 4.328125 -9.050781 4.328125 -7.25 L 4.328125 0 L 2.21875 0 L 2.21875 -19.671875 L 4.328125 -19.671875 L 4.328125 -13.71875 C 4.328125 -13 4.289062 -12.40625 4.21875 -11.9375 L 4.34375 -11.9375 C 4.757812 -12.601562 5.347656 -13.125 6.109375 -13.5 C 6.867188 -13.882812 7.738281 -14.078125 8.71875 -14.078125 C 10.414062 -14.078125 11.6875 -13.675781 12.53125 -12.875 C 13.382812 -12.070312 13.8125 -10.789062 13.8125 -9.03125 L 13.8125 0 Z M 11.703125 0 "/></g></g><g transform="translate(213.542125, 290.711379)"><g/></g><g transform="translate(220.269584, 290.711379)"><g><path d="M 12.96875 -4.921875 C 12.96875 -3.296875 12.378906 -2.023438 11.203125 -1.109375 C 10.023438 -0.203125 8.421875 0.25 6.390625 0.25 C 4.203125 0.25 2.519531 -0.03125 1.34375 -0.59375 L 1.34375 -2.671875 C 2.101562 -2.347656 2.925781 -2.09375 3.8125 -1.90625 C 4.707031 -1.71875 5.59375 -1.625 6.46875 -1.625 C 7.90625 -1.625 8.984375 -1.894531 9.703125 -2.4375 C 10.429688 -2.988281 10.796875 -3.75 10.796875 -4.71875 C 10.796875 -5.351562 10.664062 -5.875 10.40625 -6.28125 C 10.15625 -6.695312 9.726562 -7.078125 9.125 -7.421875 C 8.519531 -7.765625 7.601562 -8.15625 6.375 -8.59375 C 4.65625 -9.207031 3.425781 -9.9375 2.6875 -10.78125 C 1.945312 -11.625 1.578125 -12.722656 1.578125 -14.078125 C 1.578125 -15.503906 2.113281 -16.640625 3.1875 -17.484375 C 4.257812 -18.328125 5.675781 -18.75 7.4375 -18.75 C 9.269531 -18.75 10.957031 -18.410156 12.5 -17.734375 L 11.828125 -15.859375 C 10.304688 -16.503906 8.828125 -16.828125 7.390625 -16.828125 C 6.242188 -16.828125 5.347656 -16.582031 4.703125 -16.09375 C 4.066406 -15.601562 3.75 -14.925781 3.75 -14.0625 C 3.75 -13.414062 3.867188 -12.890625 4.109375 -12.484375 C 4.347656 -12.078125 4.742188 -11.703125 5.296875 -11.359375 C 5.859375 -11.015625 6.71875 -10.640625 7.875 -10.234375 C 9.8125 -9.535156 11.144531 -8.789062 11.875 -8 C 12.601562 -7.207031 12.96875 -6.179688 12.96875 -4.921875 Z M 12.96875 -4.921875 "/></g></g><g transform="translate(234.483237, 290.711379)"><g><path d="M 10.75 0 L 10.328125 -1.96875 L 10.234375 -1.96875 C 9.535156 -1.101562 8.84375 -0.515625 8.15625 -0.203125 C 7.46875 0.0976562 6.613281 0.25 5.59375 0.25 C 4.21875 0.25 3.140625 -0.101562 2.359375 -0.8125 C 1.578125 -1.519531 1.1875 -2.523438 1.1875 -3.828125 C 1.1875 -6.628906 3.425781 -8.097656 7.90625 -8.234375 L 10.25 -8.3125 L 10.25 -9.171875 C 10.25 -10.253906 10.015625 -11.050781 9.546875 -11.5625 C 9.078125 -12.082031 8.332031 -12.34375 7.3125 -12.34375 C 6.15625 -12.34375 4.847656 -11.992188 3.390625 -11.296875 L 2.75 -12.890625 C 3.425781 -13.265625 4.171875 -13.554688 4.984375 -13.765625 C 5.796875 -13.972656 6.613281 -14.078125 7.4375 -14.078125 C 9.082031 -14.078125 10.300781 -13.710938 11.09375 -12.984375 C 11.894531 -12.253906 12.296875 -11.078125 12.296875 -9.453125 L 12.296875 0 Z M 6 -1.484375 C 7.3125 -1.484375 8.335938 -1.835938 9.078125 -2.546875 C 9.828125 -3.265625 10.203125 -4.269531 10.203125 -5.5625 L 10.203125 -6.8125 L 8.109375 -6.71875 C 6.429688 -6.664062 5.222656 -6.410156 4.484375 -5.953125 C 3.753906 -5.492188 3.390625 -4.78125 3.390625 -3.8125 C 3.390625 -3.050781 3.617188 -2.472656 4.078125 -2.078125 C 4.535156 -1.679688 5.175781 -1.484375 6 -1.484375 Z M 6 -1.484375 "/></g></g><g transform="translate(248.886574, 290.711379)"><g><path d="M 11.703125 0 L 11.703125 -8.96875 C 11.703125 -10.09375 11.445312 -10.929688 10.9375 -11.484375 C 10.425781 -12.046875 9.617188 -12.328125 8.515625 -12.328125 C 7.066406 -12.328125 6.003906 -11.929688 5.328125 -11.140625 C 4.660156 -10.359375 4.328125 -9.066406 4.328125 -7.265625 L 4.328125 0 L 2.21875 0 L 2.21875 -13.859375 L 3.9375 -13.859375 L 4.265625 -11.953125 L 4.375 -11.953125 C 4.800781 -12.640625 5.398438 -13.171875 6.171875 -13.546875 C 6.953125 -13.921875 7.820312 -14.109375 8.78125 -14.109375 C 10.445312 -14.109375 11.703125 -13.703125 12.546875 -12.890625 C 13.390625 -12.085938 13.8125 -10.800781 13.8125 -9.03125 L 13.8125 0 Z M 11.703125 0 "/></g></g><g transform="translate(264.782091, 290.711379)"><g><path d="M 11.65625 -1.859375 L 11.546875 -1.859375 C 10.578125 -0.453125 9.125 0.25 7.1875 0.25 C 5.375 0.25 3.960938 -0.367188 2.953125 -1.609375 C 1.953125 -2.847656 1.453125 -4.609375 1.453125 -6.890625 C 1.453125 -9.171875 1.957031 -10.941406 2.96875 -12.203125 C 3.976562 -13.472656 5.382812 -14.109375 7.1875 -14.109375 C 9.070312 -14.109375 10.515625 -13.425781 11.515625 -12.0625 L 11.6875 -12.0625 L 11.59375 -13.0625 L 11.546875 -14.03125 L 11.546875 -19.671875 L 13.640625 -19.671875 L 13.640625 0 L 11.9375 0 Z M 7.453125 -1.5 C 8.890625 -1.5 9.929688 -1.890625 10.578125 -2.671875 C 11.222656 -3.453125 11.546875 -4.710938 11.546875 -6.453125 L 11.546875 -6.890625 C 11.546875 -8.847656 11.21875 -10.242188 10.5625 -11.078125 C 9.90625 -11.921875 8.863281 -12.34375 7.4375 -12.34375 C 6.207031 -12.34375 5.265625 -11.863281 4.609375 -10.90625 C 3.953125 -9.957031 3.625 -8.609375 3.625 -6.859375 C 3.625 -5.085938 3.945312 -3.75 4.59375 -2.84375 C 5.25 -1.945312 6.203125 -1.5 7.453125 -1.5 Z M 7.453125 -1.5 "/></g></g><g transform="translate(280.652318, 290.711379)"><g><path d="M 8.671875 -14.078125 C 10.492188 -14.078125 11.90625 -13.457031 12.90625 -12.21875 C 13.914062 -10.976562 14.421875 -9.21875 14.421875 -6.9375 C 14.421875 -4.664062 13.910156 -2.898438 12.890625 -1.640625 C 11.878906 -0.378906 10.472656 0.25 8.671875 0.25 C 7.765625 0.25 6.9375 0.0820312 6.1875 -0.25 C 5.445312 -0.582031 4.828125 -1.09375 4.328125 -1.78125 L 4.171875 -1.78125 L 3.734375 0 L 2.21875 0 L 2.21875 -19.671875 L 4.328125 -19.671875 L 4.328125 -14.890625 C 4.328125 -13.816406 4.289062 -12.859375 4.21875 -12.015625 L 4.328125 -12.015625 C 5.304688 -13.390625 6.753906 -14.078125 8.671875 -14.078125 Z M 8.375 -12.328125 C 6.9375 -12.328125 5.898438 -11.914062 5.265625 -11.09375 C 4.640625 -10.269531 4.328125 -8.882812 4.328125 -6.9375 C 4.328125 -4.988281 4.648438 -3.59375 5.296875 -2.75 C 5.941406 -1.914062 6.984375 -1.5 8.421875 -1.5 C 9.710938 -1.5 10.671875 -1.96875 11.296875 -2.90625 C 11.929688 -3.851562 12.25 -5.207031 12.25 -6.96875 C 12.25 -8.769531 11.929688 -10.113281 11.296875 -11 C 10.671875 -11.882812 9.695312 -12.328125 8.375 -12.328125 Z M 8.375 -12.328125 "/></g></g><g transform="translate(296.522544, 290.711379)"><g><path d="M 14.1875 -6.9375 C 14.1875 -4.675781 13.613281 -2.910156 12.46875 -1.640625 C 11.332031 -0.378906 9.765625 0.25 7.765625 0.25 C 6.523438 0.25 5.421875 -0.0351562 4.453125 -0.609375 C 3.492188 -1.191406 2.753906 -2.023438 2.234375 -3.109375 C 1.710938 -4.203125 1.453125 -5.476562 1.453125 -6.9375 C 1.453125 -9.195312 2.015625 -10.957031 3.140625 -12.21875 C 4.273438 -13.476562 5.84375 -14.109375 7.84375 -14.109375 C 9.789062 -14.109375 11.332031 -13.460938 12.46875 -12.171875 C 13.613281 -10.878906 14.1875 -9.132812 14.1875 -6.9375 Z M 3.625 -6.9375 C 3.625 -5.164062 3.976562 -3.816406 4.6875 -2.890625 C 5.394531 -1.960938 6.4375 -1.5 7.8125 -1.5 C 9.1875 -1.5 10.226562 -1.957031 10.9375 -2.875 C 11.65625 -3.800781 12.015625 -5.15625 12.015625 -6.9375 C 12.015625 -8.695312 11.65625 -10.035156 10.9375 -10.953125 C 10.226562 -11.867188 9.175781 -12.328125 7.78125 -12.328125 C 6.414062 -12.328125 5.378906 -11.875 4.671875 -10.96875 C 3.972656 -10.070312 3.625 -8.726562 3.625 -6.9375 Z M 3.625 -6.9375 "/></g></g><g transform="translate(312.16515, 290.711379)"><g><path d="M 5.5625 -7.09375 L 0.75 -13.859375 L 3.140625 -13.859375 L 6.78125 -8.546875 L 10.421875 -13.859375 L 12.796875 -13.859375 L 7.984375 -7.09375 L 13.046875 0 L 10.671875 0 L 6.78125 -5.609375 L 2.875 0 L 0.5 0 Z M 5.5625 -7.09375 "/></g></g></g></svg>